PathFileType	4	(X/Y/Z)	C:\Users\Admin\Desktop\Capture Files\05302019 Reflex Trials\StaticTrial_2-Unnamed.trc
DataRate	CameraRate	NumFrames	NumMarkers	Units	OrigDataRate	OrigDataStartFrame	OrigNumFrames
300.00	300.00	      9	0	mm	300.00	931	      2482
Frame#	Time	
		

931	3.100	579.11761	-624.16260	918.14758	895.17181	-726.42419	1114.07373	497.73184	-499.47668	874.55389	861.92487	-849.13348	1269.17004	432.07623	-313.03265	455.44348	180.13199	-512.54297	610.88324	158.30656	-528.84375	409.26871	820.63440	-766.50269	1019.97968	290.27277	-498.62042	730.08337				182.95515	-588.92029	724.82458	370.68442	-425.67413	714.77979	499.58206	-365.00888	739.14966				428.30966	-327.31046	639.68896	
932	3.103	579.12299	-624.15521	918.16132	895.03479	-726.32953	1114.05615	497.73114	-499.47556	874.55389	862.10980	-849.39246	1269.22119	432.05939	-313.00345	455.45386	180.13460	-512.52979	610.88092	158.29446	-528.85291	409.26804	820.56146	-766.48486	1019.97498	290.26254	-498.62503	730.08600				182.93771	-588.93073	724.83173	370.69272	-425.64813	714.77997	499.56931	-365.01883	739.13513				428.32074	-327.29581	639.71039	
933	3.107	579.12134	-624.15668	918.14252	895.11615	-726.40491	1114.08923	497.74307	-499.45914	874.55383	862.07507	-849.35138	1269.15259	432.05612	-313.00543	455.44482	180.13361	-512.53174	610.89154	158.30116	-528.85388	409.26572	820.59338	-766.45331	1020.00555	290.27057	-498.62628	730.07117				182.93185	-588.93964	724.82690	370.68661	-425.66327	714.77179	499.58411	-364.99310	739.15454				428.32184	-327.29361	639.69794	
934	3.110	579.12628	-624.16327	918.14819	895.08899	-726.40570	1114.09839	497.73535	-499.45053	874.55988	862.12854	-849.48181	1269.15295	432.05093	-312.99622	455.44647	180.12117	-512.52582	610.88800	158.29372	-528.85522	409.26462	820.64990	-766.47620	1019.99402	290.27182	-498.61786	730.07526				182.92967	-588.94873	724.83752	370.70129	-425.67178	714.76318	499.59317	-364.98792	739.14954				428.32666	-327.29959	639.70032	
935	3.113	579.13635	-624.16357	918.14838	895.11377	-726.41138	1114.11365	497.76004	-499.46967	874.54785	861.97260	-849.30627	1269.14954	432.06378	-312.99759	455.43817	180.14639	-512.53430	610.89398	158.31396	-528.85040	409.25189	820.61713	-766.49042	1019.97894	290.29242	-498.62512	730.07568				182.91920	-588.93079	724.82367	370.67599	-425.62598	714.77759	499.59283	-365.00180	739.14392				428.33029	-327.28619	639.71167	
936	3.117	579.10809	-624.16095	918.15027	895.11584	-726.45807	1114.09351	497.73904	-499.45801	874.55109	862.08978	-849.45026	1269.13123	432.06546	-313.00293	455.44238	180.13181	-512.53461	610.87848	158.30927	-528.84216	409.25839	820.64386	-766.53583	1019.96924	290.26416	-498.61530	730.08722				182.93806	-588.93652	724.82391	370.68890	-425.66034	714.77551	499.57791	-365.01016	739.13470				428.32559	-327.29932	639.70502	
937	3.120	579.13971	-624.15979	918.14063	895.02338	-726.34082	1114.08301	497.73984	-499.45099	874.55902	862.20123	-849.55237	1269.17908	432.07703	-312.99399	455.46204	180.14471	-512.53473	610.87976	158.30342	-528.85364	409.25607	820.67029	-766.50995	1020.01276	290.27444	-498.63440	730.06451				182.92972	-588.93878	724.82257	370.68051	-425.66745	714.77863	499.59427	-365.01810	739.13702				428.32761	-327.28897	639.69775	
938	3.123	579.13318	-624.15674	918.16083	895.10748	-726.40179	1114.07715	497.76392	-499.47284	874.55536	862.08075	-849.42615	1269.15356	432.06958	-312.99124	455.44522	180.15016	-512.52368	610.88098	158.29759	-528.82800	409.25500	820.59747	-766.47845	1019.97864	290.25287	-498.62250	730.06152				182.93169	-588.91089	724.82593	370.67035	-425.63458	714.78870	499.59265	-365.00742	739.13092				428.32941	-327.28445	639.70551	
939	3.127	579.13397	-624.13745	918.13733	895.10266	-726.39484	1114.10107	497.74908	-499.44531	874.54639	862.08258	-849.42523	1269.16101	432.07129	-312.99420	455.45517	180.12363	-512.53497	610.88617	158.30978	-528.82599	409.25937	820.63171	-766.48126	1019.99878	290.26886	-498.62408	730.05719				182.93787	-588.91687	724.82391	370.69037	-425.65576	714.78070	499.57736	-365.00049	739.13342				428.31818	-327.29257	639.70654	
